{"title":"Gooische.Vrouwen.2011.DVDRip.XviD-EXViD","uid":6705403,"size":1481516204,"categoryP":"video","categoryS":"movies","magnet":"?xt=urn:btih:65ef30dc9926134aaba37614dc45faf58b6e522d&amp;dn=Gooische.Vrouwen.2011.DVDRip.XviD-EXViD&amp;tr=udp%3A%2F%2Ftracker.openbittorrent.com%3A80&amp;tr=udp%3A%2F%2Fopen.demonii.com%3A1337&amp;tr=udp%3A%2F%2Ftracker.coppersurfer.tk%3A6969&amp;tr=udp%3A%2F%2Fexodus.desync.com%3A6969","seeders":1,"leechers":0,"uploader":"TvTeam","files":11,"time":1317137599,"description":". \n  &lt;a href=&quot;\nhttp://www.torrenting.com/&quot; rel=&quot;nofollow&quot; target=&quot;_NEW&quot;&gt;\nhttp://www.torrenting.com/&lt;/a&gt;        :     Greatest Movie Tracker on The Net!!!\n &lt;a href=&quot;\nhttp://www.Torrenting.com&quot; rel=&quot;nofollow&quot; target=&quot;_NEW&quot;&gt;\nhttp://www.Torrenting.com&lt;/a&gt;          :     Once &amp; For all ;)\n\n\n               www . Torrenting . Com \n\n(((((((((((((= Enjoy No RAR releases =))))))))))))))))))))\n\n\n...................................NFO:....................................\n\n.                                                                                                     \n       \n     \n     \n       \n       \n     \n     \n                                         \n                                         \n                EXVID                    \n                                         \n         \n                                         \n         Filled the Archives             \n                                         \n         \n                                         \n                With:                    \n                                         \n         \n                                         \n                                    \n     E240                           \n                                    \n     SP               (C) 2009      \n                                         \n     \n     \n     \n                                                                                  \n                                                                                   \n                 Gooische.Vrouwen.2011.DVDRip.XviD-EXViD                            \n                                                                                   \n                                                                                  \n     \n                                                                                               \nEXViD aims to iNTERNAL those releases which have been lost in the archives.\nEXViD aims to PRE non-internal releases which have poor sources and are likely skipped by others. &lt;a href=&quot;\nhttp://www.imdb.com/title/tt1700423/&quot; rel=&quot;nofollow&quot; target=&quot;_NEW&quot;&gt;\nhttp://www.imdb.com/title/tt1700423/&lt;/a&gt;\nSubtitles: NL HI, FL, EN\nDate: 2011.09\n\nDirector: Will Koopman\n\nGenres: Comedy | Drama\n\nPlot:\nIn het Gooi verlopen de levens van de vier vriendinnen alles behalve soepel. Cheryls man,\nMartin, wordt weer behoorlijk afgeleid door ander vrouwelijk schoon. Claires dochter en dus ook\nhaar kleinzoon vertrekken naar Burkina Faso voor drie jaar. Roelien is van slag omdat ze een\nbejaarde heeft geslagen en tot overmaat van ramp besluit Vlinder bij haar vader te gaan wonen,\nomdat ze haar moeder een slet vindt. De dames zijn hard toe aan een vakantie om weer een beetje\ntot zichzelf te komen. Ze pakken hun koffers en vertrekken naar Frankrijk. Eenmaal daar\nrealiseren ze zich hoe belangrijk vriendschap eigenlijk is.\n\nCast:\nLinda de Mol \t ... \t Cheryl Morero \nSusan Visser \t ... \t Anouk Verschuur \nTjitske Reidinga \t ... \t Claire van Kampen \nLies Visschedijk \t ... \t Roelien Grootheeze \nPeter Paul Muller \t ... \tMartin Morero \nDerek de Lint \t ... \tDokter Rossi \nLeopold Witte \t ... \tEvert Lodewijkx \nDanil Boissevain \t ... \tTom Blauw \nLisa Bouwman \t ... \t Vlinder Blaauw \nTina de Bruin \t ... \t Lerares Vlinder \nIwan Dam \t\t\nMaik de Boer \t ... \t Maik de Boer \nMea de Jong \t ... \t Merel van Kampen \nNatasja Froger \t ... \t Natasja Froger \nRen Froger \t ... \t Ren Froger\n\nStats:\nFormat                           : AVI\nFormat/Info                      : Audio Video Interleave\nFile size                        : 1.37 GiB\nDuration                         : 1h 43mn\nOverall bit rate                 : 1 887 Kbps\nWriting application              : Nandub v1.0rc2\nWriting library                  : Nandub build 1852/release\n\nVideo\nID                               : 0\nFormat                           : MPEG-4 Visual\nFormat profile                   : Advanced Simple@L5\nFormat settings, BVOP            : Yes\nFormat settings, QPel            : No\nFormat settings, GMC             : No warppoints\nFormat settings, Matrix          : Default (H.263)\nMuxing mode                      : Packed bitstream\nCodec ID                         : XVID\nCodec ID/Hint                    : XviD\nDuration                         : 1h 43mn\nBit rate                         : 1 429 Kbps\nWidth                            : 624 pixels\nHeight                           : 336 pixels\nDisplay aspect ratio             : 1.857\nFrame rate                       : 25.000 fps\nColor space                      : YUV\nChroma subsampling               : 4:2:0\nBit depth                        : 8 bits\nScan type                        : Progressive\nBits/(Pixel*Frame)               : 0.273\nStream size                      : 1.03 GiB (76%)\nWriting library                  : XviD 62\n\nAudio\nID                               : 1\nFormat                           : AC-3\nFormat/Info                      : Audio Coding 3\nMode extension                   : CM (complete main)\nCodec ID                         : 2000\nDuration                         : 1h 43mn\nBit rate mode                    : Constant\nBit rate                         : 448 Kbps\nChannel(s)                       : 6 channels\nChannel positions                : Front: L C R, Side: L R, LFE\nSampling rate                    : 48.0 KHz\nBit depth                        : 16 bits\nVideo delay                      : 1s 0ms\nStream size                      : 332 MiB (24%)\nAlignment                        : Split accross interleaves\nInterleave, duration             : 40 ms (1.00 video frame)\nInterleave, preload duration     : 500 ms\n\n\n\n\nRelease notes:\nenjoy!\n\nLooking for:\n75TB+ Archives\nDUTCH/FLEMiSH Archives\n                                                                                                    \nGreets: CRBS EPiSODE FiCO FLS iLS KLASSiGER LiPSYNC MADE NODLABS RUNNER SPRiNTER      \n   \n\n                                                                    ASCII DONE BY XX^NFO 2oo9","torrent":{"xt":"urn:btih:65ef30dc9926134aaba37614dc45faf58b6e522d","amp;dn":"Gooische.Vrouwen.2011.DVDRip.XviD-EXViD","amp;tr":["udp%3A%2F%2Ftracker.openbittorrent.com%3A80","udp%3A%2F%2Fopen.demonii.com%3A1337","udp%3A%2F%2Ftracker.coppersurfer.tk%3A6969","udp%3A%2F%2Fexodus.desync.com%3A6969"],"infoHash":"65ef30dc9926134aaba37614dc45faf58b6e522d","infoHashBuffer":{"type":"Buffer","data":[101,239,48,220,153,38,19,74,171,163,118,20,220,69,250,245,139,110,82,45]},"announce":[],"urlList":[]}}